<?xml version="1.0" encoding="UTF-8" standalone="no"?><!DOCTYPE svg PUBLIC "-//W3C//DTD SVG 1.1//EN" "http://www.w3.org/Graphics/SVG/1.1/DTD/svg11.dtd"><svg width="100%" height="100%" viewBox="0 0 3179 873" version="1.1" xmlns="http://www.w3.org/2000/svg" xmlns:xlink="http://www.w3.org/1999/xlink" xml:space="preserve" xmlns:serif="http://www.serif.com/" style="fill-rule:evenodd;clip-rule:evenodd;stroke-linejoin:round;stroke-miterlimit:2;"><path d="M182.294,753.452c-15.901,0 -29.815,-0.709 -41.74,-2.129c-11.926,-1.42 -23.142,-4.827 -33.648,-10.222c-27.543,-13.346 -41.314,-40.037 -41.314,-80.073c-0,-19.309 3.052,-42.45 9.157,-69.425c6.105,-26.975 14.836,-56.08 26.194,-87.314c24.987,-68.715 55.938,-134.732 92.851,-198.053c-28.963,1.704 -51.892,6.034 -68.786,12.991c-16.895,6.957 -28.04,17.676 -33.435,32.157c2.555,-0 5.111,2.981 7.666,8.944c2.556,5.963 3.834,12.068 3.834,18.315c-0,10.222 -4.685,18.456 -14.056,24.703c-9.37,6.247 -21.012,9.37 -34.925,9.37c-15.617,0 -28.395,-4.259 -38.333,-12.777c-10.506,-8.802 -15.759,-21.438 -15.759,-37.907c-0,-14.481 4.401,-28.324 13.204,-41.527c8.802,-13.204 21.296,-24.633 37.48,-34.287c16.469,-9.938 35.565,-17.675 57.287,-23.212c21.722,-5.537 45.076,-8.306 70.064,-8.306c12.209,0 27.4,0.852 45.573,2.556c48.839,-76.95 97.678,-137.289 146.516,-181.016c56.79,-50.827 109.036,-76.24 156.739,-76.24c28.395,0 51.394,4.117 68.999,12.352l-136.72,641.861l-125.647,0l66.87,-316.458c-21.012,-9.655 -40.676,-16.895 -58.99,-21.722c-18.315,-4.827 -37.552,-8.093 -57.712,-9.797c-32.938,71.271 -59.913,144.103 -80.925,218.497c-21.58,74.678 -32.37,134.733 -32.37,180.165c-0,22.431 3.975,38.616 11.926,48.554Zm276.848,-691.694c-25.272,13.63 -51.821,39.327 -79.647,77.092c-27.259,37.481 -53.098,80.783 -77.518,129.906c39.753,7.666 75.246,17.746 106.48,30.24l50.685,-237.238Z" style="fill:url(#_Linear1);fill-rule:nonzero;"/><path d="M641.436,185.701l125.646,0l-14.055,65.592c29.53,-24.988 63.462,-37.481 101.794,-37.481c32.654,-0 57.926,9.938 75.814,29.814c20.444,23.284 30.666,59.203 30.666,107.758c0,46.851 -5.962,90.863 -17.888,132.035c-15.049,52.53 -36.913,93.277 -65.592,122.239c-35.209,35.778 -78.937,53.666 -131.183,53.666c-20.16,0 -36.771,-3.123 -49.833,-9.37c-9.938,-4.543 -18.031,-11.784 -24.277,-21.722l-45.148,212.534l-131.609,31.518l145.665,-686.583Zm78.369,397.809c28.111,0 52.246,-14.339 72.406,-43.018c15.901,-22.431 28.679,-53.949 38.333,-94.554c7.667,-32.654 11.5,-65.024 11.5,-97.11c-0,-28.678 -5.253,-49.122 -15.759,-61.332c-6.815,-7.383 -16.185,-11.074 -28.111,-11.074c-10.506,0 -21.154,3.691 -31.944,11.074c-10.79,7.383 -20.16,18.031 -28.111,31.944l-51.536,244.052c1.988,5.679 5.75,10.435 11.287,14.268c5.537,3.834 12.848,5.75 21.935,5.75Z" style="fill:url(#_Linear2);fill-rule:nonzero;"/><path d="M1049.47,185.701l125.646,0l-14.055,65.592c29.53,-24.988 63.462,-37.481 101.795,-37.481c32.654,-0 57.925,9.938 75.814,29.814c20.444,23.284 30.666,59.203 30.666,107.758c-0,46.851 -5.963,90.863 -17.889,132.035c-15.049,52.53 -36.913,93.277 -65.592,122.239c-35.209,35.778 -78.937,53.666 -131.183,53.666c-20.16,0 -36.771,-3.123 -49.833,-9.37c-9.938,-4.543 -18.03,-11.784 -24.277,-21.722l-45.148,212.534l-131.609,31.518l145.665,-686.583Zm78.369,397.809c28.111,0 52.246,-14.339 72.407,-43.018c15.901,-22.431 28.678,-53.949 38.332,-94.554c7.667,-32.654 11.5,-65.024 11.5,-97.11c0,-28.678 -5.253,-49.122 -15.759,-61.332c-6.815,-7.383 -16.185,-11.074 -28.111,-11.074c-10.506,0 -21.154,3.691 -31.944,11.074c-10.79,7.383 -20.16,18.031 -28.11,31.944l-51.537,244.052c1.988,5.679 5.75,10.435 11.287,14.268c5.537,3.834 12.849,5.75 21.935,5.75Z" style="fill:url(#_Linear3);fill-rule:nonzero;"/><path d="M1793.98,60.907c-39.185,16.468 -69.354,40.888 -90.508,73.258c-21.154,32.37 -31.731,71.696 -31.731,117.98c-0,18.74 2.13,33.221 6.389,43.443c1.136,3.692 2.555,6.957 4.259,9.797c1.136,1.987 1.704,3.975 1.704,5.963c-31.234,-0 -54.376,-6.247 -69.425,-18.741c-15.901,-13.345 -23.852,-35.351 -23.852,-66.018c0,-18.74 4.046,-37.481 12.139,-56.221c8.092,-18.74 19.663,-36.771 34.712,-54.092c14.482,-16.753 31.518,-32.228 51.111,-46.425c19.592,-14.197 40.888,-26.549 63.888,-37.055c48.839,-21.864 96.826,-32.796 143.961,-32.796c13.061,0 24.703,0.568 34.925,1.704l-55.795,259.811l128.202,-0l55.795,-259.811l125.646,-0l-138.424,652.509l-125.646,0l69.851,-327.958l-128.202,-0l-69.851,327.958l-125.646,0l126.498,-593.306Z" style="fill:url(#_Linear4);fill-rule:nonzero;"/><path d="M2285.06,659.324c-42.876,0 -75.956,-10.79 -99.24,-32.37c-24.703,-22.999 -37.055,-58.351 -37.055,-106.054c0,-17.888 1.775,-37.765 5.324,-59.629c3.55,-21.864 8.874,-43.727 15.972,-65.591c7.951,-24.42 18.102,-47.561 30.454,-69.425c12.351,-21.864 26.762,-41.173 43.231,-57.925c38.048,-38.617 84.9,-57.926 140.553,-57.926c35.493,0 61.333,8.519 77.518,25.556c12.493,13.345 18.74,32.654 18.74,57.925c0,24.703 -5.395,47.916 -16.185,69.638c-10.79,21.722 -25.697,40.959 -44.722,57.712c-19.024,16.469 -40.604,29.601 -64.739,39.397c-24.136,9.797 -49.123,15.547 -74.962,17.25c-1.42,14.765 -2.13,26.407 -2.13,34.926c0,28.394 5.395,47.987 16.185,58.777c9.37,9.654 24.987,14.481 46.851,14.481c31.518,-0 60.339,-8.518 86.462,-25.555c11.074,-7.099 21.722,-15.546 31.944,-25.343c10.222,-9.796 22.148,-22.218 35.777,-37.268l29.815,0c-27.543,46.568 -59.203,83.623 -94.98,111.166c-44.012,33.505 -92.283,50.258 -144.813,50.258Zm1.703,-223.182c16.185,-1.136 31.944,-5.821 47.278,-14.055c15.333,-8.235 28.962,-19.025 40.888,-32.37c11.926,-13.63 21.296,-28.892 28.111,-45.787c6.814,-16.894 10.222,-34.144 10.222,-51.749c-0,-11.642 -1.633,-20.515 -4.898,-26.62c-3.266,-6.105 -8.874,-9.157 -16.824,-9.157c-10.506,-0 -21.083,5.111 -31.731,15.333c-10.648,10.222 -20.941,24.277 -30.879,42.166c-9.087,16.753 -17.321,35.777 -24.704,57.073c-7.382,21.296 -13.203,43.018 -17.463,65.166Z" style="fill:url(#_Linear5);fill-rule:nonzero;"/><path d="M2554.24,218.071l125.647,0l-11.074,54.092c19.876,-17.605 36.061,-30.098 48.555,-37.481c19.308,-11.074 38.19,-16.611 56.647,-16.611c18.74,0 33.79,6.673 45.147,20.018c5.111,5.963 8.945,12.849 11.5,20.657c2.556,7.809 3.834,16.114 3.834,24.917c-0,7.95 -1.278,15.617 -3.834,22.999c-2.555,7.383 -6.389,14.056 -11.5,20.019c-5.679,6.246 -12.564,11.216 -20.657,14.907c-8.092,3.691 -17.107,5.537 -27.046,5.537c-7.666,-0 -13.771,-1.278 -18.314,-3.833c-4.543,-2.556 -8.093,-6.247 -10.648,-11.074c-2.272,-4.828 -3.833,-9.513 -4.685,-14.056c-2.556,-12.209 -5.111,-20.302 -7.667,-24.277c-1.987,-2.84 -5.111,-4.259 -9.37,-4.259c-12.21,-0 -22.574,2.555 -31.092,7.666c-8.519,5.111 -19.309,13.63 -32.37,25.555l-69.851,331.366l-125.646,0l92.424,-436.142Z" style="fill:url(#_Linear6);fill-rule:nonzero;"/><path d="M2938.85,659.324c-39.753,0 -69.993,-9.725 -90.721,-29.175c-20.728,-19.451 -31.092,-46.923 -31.092,-82.416c-0,-19.024 1.987,-35.635 5.963,-49.833l93.276,-436.993l129.054,-17.463l-41.74,196.349c16.753,-10.222 30.95,-17.037 42.592,-20.444c8.518,-2.556 18.172,-3.833 28.962,-3.833c32.654,-0 57.5,10.931 74.536,32.795c19.025,24.704 28.537,63.462 28.537,116.277c-0,18.172 -1.704,37.835 -5.111,58.989c-3.407,21.154 -8.66,42.096 -15.759,62.824c-17.037,49.69 -41.74,89.443 -74.11,119.257c-39.185,35.778 -87.314,53.666 -144.387,53.666Zm48.981,-84.332c17.604,-0 34.925,-11.784 51.962,-35.351c14.765,-21.012 26.975,-48.555 36.629,-82.629c9.086,-33.506 13.63,-65.45 13.63,-95.832c-0,-23.567 -3.692,-42.876 -11.074,-57.925c-3.976,-8.234 -8.945,-14.623 -14.908,-19.166c-5.962,-4.544 -12.777,-6.815 -20.444,-6.815c-9.938,-0 -18.882,0.994 -26.833,2.981c-11.925,3.124 -20.16,7.383 -24.703,12.778l-47.703,221.478c-1.704,7.099 -2.556,13.772 -2.556,20.019c0,26.975 15.333,40.462 46,40.462Z" style="fill:url(#_Linear7);fill-rule:nonzero;"/><defs><linearGradient id="_Linear1" x1="0" y1="0" x2="1" y2="0" gradientUnits="userSpaceOnUse" gradientTransform="matrix(2863.96,-82.9392,82.9392,2863.96,208.443,447.189)"><stop offset="0" style="stop-color:#009ccd;stop-opacity:1"/><stop offset="1" style="stop-color:#00eb96;stop-opacity:1"/></linearGradient><linearGradient id="_Linear2" x1="0" y1="0" x2="1" y2="0" gradientUnits="userSpaceOnUse" gradientTransform="matrix(2863.96,-82.9392,82.9392,2863.96,208.443,447.189)"><stop offset="0" style="stop-color:#009ccd;stop-opacity:1"/><stop offset="1" style="stop-color:#00eb96;stop-opacity:1"/></linearGradient><linearGradient id="_Linear3" x1="0" y1="0" x2="1" y2="0" gradientUnits="userSpaceOnUse" gradientTransform="matrix(2863.96,-82.9392,82.9392,2863.96,208.443,447.189)"><stop offset="0" style="stop-color:#009ccd;stop-opacity:1"/><stop offset="1" style="stop-color:#00eb96;stop-opacity:1"/></linearGradient><linearGradient id="_Linear4" x1="0" y1="0" x2="1" y2="0" gradientUnits="userSpaceOnUse" gradientTransform="matrix(2863.96,-82.9392,82.9392,2863.96,208.443,447.189)"><stop offset="0" style="stop-color:#009ccd;stop-opacity:1"/><stop offset="1" style="stop-color:#00eb96;stop-opacity:1"/></linearGradient><linearGradient id="_Linear5" x1="0" y1="0" x2="1" y2="0" gradientUnits="userSpaceOnUse" gradientTransform="matrix(2863.96,-82.9392,82.9392,2863.96,208.443,447.189)"><stop offset="0" style="stop-color:#009ccd;stop-opacity:1"/><stop offset="1" style="stop-color:#00eb96;stop-opacity:1"/></linearGradient><linearGradient id="_Linear6" x1="0" y1="0" x2="1" y2="0" gradientUnits="userSpaceOnUse" gradientTransform="matrix(2863.96,-82.9392,82.9392,2863.96,208.443,447.189)"><stop offset="0" style="stop-color:#009ccd;stop-opacity:1"/><stop offset="1" style="stop-color:#00eb96;stop-opacity:1"/></linearGradient><linearGradient id="_Linear7" x1="0" y1="0" x2="1" y2="0" gradientUnits="userSpaceOnUse" gradientTransform="matrix(2863.96,-82.9392,82.9392,2863.96,208.443,447.189)"><stop offset="0" style="stop-color:#009ccd;stop-opacity:1"/><stop offset="1" style="stop-color:#00eb96;stop-opacity:1"/></linearGradient></defs></svg>