<?xml version="1.0" encoding="UTF-8" standalone="no"?><!DOCTYPE svg PUBLIC "-//W3C//DTD SVG 1.1//EN" "http://www.w3.org/Graphics/SVG/1.1/DTD/svg11.dtd"><svg width="100%" height="100%" viewBox="0 0 2250 2250" version="1.1" xmlns="http://www.w3.org/2000/svg" xmlns:xlink="http://www.w3.org/1999/xlink" xml:space="preserve" xmlns:serif="http://www.serif.com/" style="fill-rule:evenodd;clip-rule:evenodd;stroke-linejoin:round;stroke-miterlimit:2;"><g><path d="M345.846,1645.45c-60.462,0 -109.296,-18.861 -146.502,-56.585c-43.408,-44.441 -65.112,-110.587 -65.112,-198.436c-0,-37.207 3.746,-76.481 11.239,-117.822c7.493,-41.341 18.474,-82.165 32.944,-122.473c33.073,-90.95 78.289,-164.33 135.65,-220.14c66.145,-63.562 142.368,-95.343 228.667,-95.343c42.891,0 75.059,7.364 96.505,22.092c21.446,14.728 32.168,34.235 32.168,58.523l0,11.627l17.054,-84.49l228.667,-0l-113.946,539.499c-4.651,15.503 -6.977,32.556 -6.977,51.159c0,45.475 21.704,68.213 65.112,68.213c28.939,-0 55.294,-14.728 79.065,-44.183c15.331,-18.869 28.569,-43.719 39.713,-74.549c6.781,-18.529 24.412,-30.851 44.142,-30.851c0.001,-0.02 0.001,-0.02 0.001,-0.02c7.46,0 14.437,3.689 18.638,9.853c4.201,6.164 5.082,14.007 2.354,20.95c-26.095,66.228 -56.638,119.786 -91.671,160.658c-34.106,38.757 -72.605,66.662 -115.496,83.715c-31.522,12.402 -64.853,18.603 -99.993,18.603c-44.959,0 -80.744,-12.273 -107.358,-36.819c-26.613,-24.546 -42.762,-60.849 -48.446,-108.907c-29.972,42.374 -61.495,75.447 -94.567,99.218c-42.375,31.006 -89.659,46.508 -141.851,46.508Zm103.094,-153.478c11.885,0 24.417,-3.1 37.594,-9.302c13.177,-6.201 25.967,-14.986 38.37,-26.354c27.905,-26.872 46.508,-61.753 55.81,-104.645l75.964,-358.116c-0,-5.167 -1.163,-11.239 -3.488,-18.215c-2.326,-6.977 -5.556,-13.565 -9.69,-19.766c-12.402,-14.987 -29.713,-22.48 -51.934,-22.48c-21.187,0 -41.729,6.977 -61.624,20.929c-19.895,13.953 -38.628,33.331 -56.198,58.136c-31.006,44.958 -56.585,103.611 -76.739,175.957c-9.302,32.04 -16.278,63.691 -20.929,94.955c-4.651,31.264 -6.976,59.557 -6.976,84.878c-0,52.71 9.818,88.367 29.455,106.97c6.718,7.235 14.211,11.886 22.479,13.953c8.269,2.067 17.57,3.1 27.906,3.1Z" style="fill:url(#_Linear1);fill-rule:nonzero;"/><path d="M1379.11,556.376c-71.313,29.972 -126.219,74.414 -164.718,133.325c-38.499,58.91 -57.748,130.482 -57.748,214.714c-0,34.106 3.875,60.461 11.627,79.065c2.067,6.718 4.651,12.66 7.751,17.828c2.067,3.617 3.101,7.235 3.101,10.852c-56.844,-0 -98.96,-11.369 -126.348,-34.106c-28.939,-24.288 -43.408,-64.337 -43.408,-120.147c-0,-34.107 7.364,-68.213 22.091,-102.319c14.728,-34.107 35.786,-66.921 63.174,-98.443c26.355,-30.489 57.361,-58.653 93.017,-84.491c35.657,-25.838 74.414,-48.317 116.272,-67.437c88.883,-39.791 176.216,-59.686 261.998,-59.686c23.771,-0 44.958,1.033 63.562,3.1l-101.544,472.837l233.318,0l101.544,-472.837l228.667,0l-251.922,1187.52l-228.667,-0l127.124,-596.86l-233.318,-0l-127.124,596.86l-228.667,-0l230.218,-1079.77Z" style="fill:url(#_Linear2);fill-rule:nonzero;"/></g><defs><linearGradient id="_Linear1" x1="0" y1="0" x2="1" y2="0" gradientUnits="userSpaceOnUse" gradientTransform="matrix(1759.75,-638.725,638.725,1759.75,237.536,1382.53)"><stop offset="0" style="stop-color:#009ccd;stop-opacity:1"/><stop offset="1" style="stop-color:#00eb96;stop-opacity:1"/></linearGradient><linearGradient id="_Linear2" x1="0" y1="0" x2="1" y2="0" gradientUnits="userSpaceOnUse" gradientTransform="matrix(1759.75,-638.725,638.725,1759.75,237.536,1382.53)"><stop offset="0" style="stop-color:#009ccd;stop-opacity:1"/><stop offset="1" style="stop-color:#00eb96;stop-opacity:1"/></linearGradient></defs></svg>